<mxfile host="65bd71144e">
    <diagram name="Page-1" id="6swBhy3WXr2XPPhzgcUO">
        <mxGraphModel dx="845" dy="464" grid="1" gridSize="10" guides="1" tooltips="1" connect="1" arrows="1" fold="1" page="1" pageScale="1" pageWidth="850" pageHeight="1100" math="0" shadow="0" adaptiveColors="simple">
            <root>
                <mxCell id="0"/>
                <mxCell id="1" parent="0"/>
                <mxCell id="Cae21eePqxvKjK_i99Ik-13" value="" style="edgeStyle=orthogonalEdgeStyle;rounded=0;orthogonalLoop=1;jettySize=auto;html=1;" parent="1" source="Cae21eePqxvKjK_i99Ik-17" target="Cae21eePqxvKjK_i99Ik-18" edge="1">
                    <mxGeometry relative="1" as="geometry">
                        <Array as="points">
                            <mxPoint x="425" y="270"/>
                            <mxPoint x="215" y="270"/>
                        </Array>
                    </mxGeometry>
                </mxCell>
                <mxCell id="Cae21eePqxvKjK_i99Ik-14" value="" style="edgeStyle=orthogonalEdgeStyle;rounded=0;orthogonalLoop=1;jettySize=auto;html=1;" parent="1" source="Cae21eePqxvKjK_i99Ik-17" target="Cae21eePqxvKjK_i99Ik-19" edge="1">
                    <mxGeometry relative="1" as="geometry">
                        <Array as="points">
                            <mxPoint x="425" y="270"/>
                            <mxPoint x="355" y="270"/>
                        </Array>
                    </mxGeometry>
                </mxCell>
                <mxCell id="Cae21eePqxvKjK_i99Ik-15" value="" style="edgeStyle=orthogonalEdgeStyle;rounded=0;orthogonalLoop=1;jettySize=auto;html=1;" parent="1" source="Cae21eePqxvKjK_i99Ik-17" target="Cae21eePqxvKjK_i99Ik-20" edge="1">
                    <mxGeometry relative="1" as="geometry">
                        <Array as="points">
                            <mxPoint x="425" y="270"/>
                            <mxPoint x="495" y="270"/>
                        </Array>
                    </mxGeometry>
                </mxCell>
                <mxCell id="Cae21eePqxvKjK_i99Ik-16" value="" style="edgeStyle=orthogonalEdgeStyle;rounded=0;orthogonalLoop=1;jettySize=auto;html=1;" parent="1" source="Cae21eePqxvKjK_i99Ik-17" target="Cae21eePqxvKjK_i99Ik-21" edge="1">
                    <mxGeometry relative="1" as="geometry">
                        <Array as="points">
                            <mxPoint x="425" y="270"/>
                            <mxPoint x="635" y="270"/>
                        </Array>
                    </mxGeometry>
                </mxCell>
                <mxCell id="Cae21eePqxvKjK_i99Ik-17" value="Homepage&lt;br&gt;(/,/home)" style="rounded=1;whiteSpace=wrap;html=1;" parent="1" vertex="1">
                    <mxGeometry x="365" y="170" width="120" height="60" as="geometry"/>
                </mxCell>
                <mxCell id="Cae21eePqxvKjK_i99Ik-18" value="Products Page&lt;br&gt;(/products)" style="whiteSpace=wrap;html=1;rounded=1;" parent="1" vertex="1">
                    <mxGeometry x="155" y="300" width="120" height="60" as="geometry"/>
                </mxCell>
                <mxCell id="Cae21eePqxvKjK_i99Ik-19" value="Cart Page&lt;br&gt;(/cart)" style="whiteSpace=wrap;html=1;rounded=1;" parent="1" vertex="1">
                    <mxGeometry x="295" y="300" width="120" height="60" as="geometry"/>
                </mxCell>
                <mxCell id="Cae21eePqxvKjK_i99Ik-20" value="Checkout Page&lt;br&gt;(/checkout)" style="whiteSpace=wrap;html=1;rounded=1;" parent="1" vertex="1">
                    <mxGeometry x="435" y="300" width="120" height="60" as="geometry"/>
                </mxCell>
                <mxCell id="Cae21eePqxvKjK_i99Ik-21" value="Account Page&lt;br&gt;(/account)" style="whiteSpace=wrap;html=1;rounded=1;" parent="1" vertex="1">
                    <mxGeometry x="575" y="300" width="120" height="60" as="geometry"/>
                </mxCell>
                <mxCell id="Cae21eePqxvKjK_i99Ik-22" value="&lt;font style=&quot;font-size: 8px;&quot;&gt;Account page:&lt;br&gt;For viewing products you bought, suggesting others, etc.&lt;br&gt;&lt;/font&gt;" style="whiteSpace=wrap;html=1;rounded=1;" parent="1" vertex="1">
                    <mxGeometry x="575" y="380" width="120" height="60" as="geometry"/>
                </mxCell>
                <mxCell id="Cae21eePqxvKjK_i99Ik-23" value="&lt;b&gt;&lt;font style=&quot;font-size: 16px;&quot;&gt;Sitemap&lt;/font&gt;&lt;/b&gt;" style="text;html=1;align=center;verticalAlign=middle;resizable=0;points=[];autosize=1;strokeColor=none;fillColor=none;" parent="1" vertex="1">
                    <mxGeometry x="380" y="80" width="90" height="30" as="geometry"/>
                </mxCell>
                <mxCell id="Cae21eePqxvKjK_i99Ik-24" value="&lt;b&gt;&lt;font style=&quot;font-size: 16px;&quot;&gt;Wireframe&lt;/font&gt;&lt;/b&gt;" style="text;html=1;align=center;verticalAlign=middle;resizable=0;points=[];autosize=1;strokeColor=none;fillColor=none;" parent="1" vertex="1">
                    <mxGeometry x="375" y="560" width="100" height="30" as="geometry"/>
                </mxCell>
                <mxCell id="2" value="Product Controller" style="swimlane;fontStyle=1;align=center;verticalAlign=top;childLayout=stackLayout;horizontal=1;startSize=26;horizontalStack=0;resizeParent=1;resizeParentMax=0;resizeLast=0;collapsible=1;marginBottom=0;whiteSpace=wrap;html=1;" vertex="1" parent="1">
                    <mxGeometry x="860" y="157" width="540" height="200" as="geometry"/>
                </mxCell>
                <mxCell id="3" value="&lt;span style=&quot;scrollbar-color: light-dark(#e2e2e2, #4b4b4b)&lt;br/&gt;&#x9;&#x9;&#x9;&#x9;&#x9;light-dark(#fbfbfb, var(--dark-panel-color)); background-color: transparent;&quot;&gt;+ gamesRepository: GamesRepositoryInterface&lt;/span&gt;" style="text;strokeColor=none;fillColor=none;align=left;verticalAlign=top;spacingLeft=4;spacingRight=4;overflow=hidden;rotatable=0;points=[[0,0.5],[1,0.5]];portConstraint=eastwest;whiteSpace=wrap;html=1;" vertex="1" parent="2">
                    <mxGeometry y="26" width="540" height="26" as="geometry"/>
                </mxCell>
                <mxCell id="4" value="" style="line;strokeWidth=1;fillColor=none;align=left;verticalAlign=middle;spacingTop=-1;spacingLeft=3;spacingRight=3;rotatable=0;labelPosition=right;points=[];portConstraint=eastwest;strokeColor=inherit;" vertex="1" parent="2">
                    <mxGeometry y="52" width="540" height="8" as="geometry"/>
                </mxCell>
                <mxCell id="5" value="&lt;span style=&quot;background-color: transparent;&quot;&gt;+ ProductController(gamesRepository: GamesRepositoryInterface)&lt;/span&gt;&lt;br&gt;&lt;span style=&quot;background-color: transparent;&quot;&gt;+ productCreationDisplay(model: Model): String&lt;/span&gt;&lt;br&gt;&lt;span style=&quot;background-color: transparent;&quot;&gt;+ createProduct(productModel: ProductModel, bindingResult: BindingResult, model: Model): String&lt;/span&gt;&lt;br&gt;&lt;span style=&quot;background-color: transparent;&quot;&gt;+ editProduct(id: Long, model: Model): String&lt;/span&gt;&lt;br&gt;&lt;span style=&quot;background-color: transparent;&quot;&gt;+ updateProduct(game: GameEntity, bindingResult: BindingResult): String&lt;/span&gt;&lt;br&gt;&lt;span style=&quot;background-color: transparent;&quot;&gt;+ deleteProduct(id: Long): String&lt;/span&gt;&lt;br&gt;&lt;span style=&quot;background-color: transparent;&quot;&gt;+ productDetails(id: Long, model: Model): String&lt;/span&gt;" style="text;strokeColor=none;fillColor=none;align=left;verticalAlign=top;spacingLeft=4;spacingRight=4;overflow=hidden;rotatable=0;points=[[0,0.5],[1,0.5]];portConstraint=eastwest;whiteSpace=wrap;html=1;" vertex="1" parent="2">
                    <mxGeometry y="60" width="540" height="140" as="geometry"/>
                </mxCell>
                <mxCell id="6" value="UML" style="text;html=1;align=center;verticalAlign=middle;resizable=0;points=[];autosize=1;strokeColor=none;fillColor=none;" vertex="1" parent="1">
                    <mxGeometry x="925" y="68" width="50" height="30" as="geometry"/>
                </mxCell>
            </root>
        </mxGraphModel>
    </diagram>
</mxfile>